<svg width="20" height="21" viewBox="0 0 20 21" fill="none" xmlns="http://www.w3.org/2000/svg">
<path d="M20 4.71998L15.405 0.864985L14.12 2.39499L18.715 6.24998L20 4.71998ZM5.88 2.38999L4.595 0.859985L0 4.71498L1.285 6.24498L5.88 2.38999ZM10.5 6.99998H9V13L13.745 15.855L14.5 14.62L10.5 12.25V6.99998ZM9.995 2.99998C5.02 2.99998 1 7.02998 1 12C1 16.97 5.02 21 9.995 21C14.97 21 19 16.97 19 12C19 7.02998 14.97 2.99998 9.995 2.99998ZM10 19C6.135 19 3 15.865 3 12C3 8.13498 6.135 4.99998 10 4.99998C13.865 4.99998 17 8.13498 17 12C17 15.865 13.87 19 10 19Z" fill="black"/>
</svg>
